<svg xmlns="http://www.w3.org/2000/svg" width="200" height="60" viewBox="0 0 200 60">
  <defs>
    <linearGradient id="bg" x1="0%" y1="0%" x2="0%" y2="100%">
      <stop offset="0%" style="stop-color:#2d2d2d"/>
      <stop offset="100%" style="stop-color:#1a1a1a"/>
    </linearGradient>
  </defs>
  <rect width="200" height="60" rx="4" fill="url(#bg)" stroke="#404040" stroke-width="1"/>
  <text x="65" y="22" font-family="Segoe UI, Arial, sans-serif" font-size="10" fill="#b0b0b0">Get it on</text>
  <text x="65" y="42" font-family="Segoe UI, Arial, sans-serif" font-size="18" font-weight="600" fill="#ffffff">GitHub</text>
  <g transform="translate(16, 12)">
    <path fill="#ffffff" d="M18 0C8.06 0 0 8.06 0 18c0 7.95 5.16 14.69 12.31 17.07.9.17 1.23-.39 1.23-.87 0-.43-.02-1.56-.02-3.06-5.01 1.09-6.07-2.41-6.07-2.41-.82-2.08-2-2.63-2-2.63-1.63-1.12.12-1.09.12-1.09 1.81.13 2.76 1.85 2.76 1.85 1.61 2.75 4.21 1.96 5.24 1.5.16-1.16.63-1.96 1.14-2.41-4-.45-8.2-2-8.2-8.9 0-1.97.7-3.57 1.85-4.83-.18-.46-.8-2.29.18-4.77 0 0 1.51-.48 4.95 1.85a17.24 17.24 0 019 0c3.43-2.33 4.94-1.85 4.94-1.85.99 2.48.37 4.31.18 4.77 1.15 1.26 1.85 2.87 1.85 4.83 0 6.92-4.21 8.44-8.22 8.89.65.56 1.22 1.66 1.22 3.34 0 2.41-.02 4.36-.02 4.95 0 .48.33 1.05 1.24.87C30.85 32.68 36 25.94 36 18 36 8.06 27.94 0 18 0z"/>
  </g>
</svg>
